<?xml version="1.0" encoding="utf-8"?>
<!-- Generator: Adobe Illustrator 23.0.3, SVG Export Plug-In . SVG Version: 6.00 Build 0)  -->
<svg version="1.1" id="Layer_1" xmlns="http://www.w3.org/2000/svg" xmlns:xlink="http://www.w3.org/1999/xlink" x="0px" y="0px"
	 viewBox="0 0 18 18" enable-background="new 0 0 18 18" xml:space="preserve">
<title>Google_G</title>
<desc>Created with Sketch.</desc>
<g id="Google_G">
	<g id="Group" transform="translate(0.000000, -0.000000)">
		<path id="Shape" fill-rule="evenodd" clip-rule="evenodd" fill="#4285F4" d="M17.64,9.205c0-0.638-0.057-1.252-0.164-1.841H9
			v3.481h4.844c-0.209,1.125-0.843,2.078-1.796,2.716v2.258h2.909C16.658,14.253,17.64,11.945,17.64,9.205L17.64,9.205z"/>
		<path fill-rule="evenodd" clip-rule="evenodd" fill="#34A853" d="M9,18c2.43,0,4.467-0.806,5.956-2.18l-2.909-2.258
			C11.242,14.101,10.211,14.42,9,14.42c-2.344,0-4.328-1.583-5.036-3.71H0.957v2.332C2.438,15.983,5.482,18,9,18L9,18z"/>
		<path fill-rule="evenodd" clip-rule="evenodd" fill="#FBBC05" d="M3.964,10.71C3.784,10.17,3.682,9.593,3.682,9
			s0.102-1.17,0.282-1.71V4.958H0.957C0.348,6.173,0,7.548,0,9s0.348,2.827,0.957,4.042L3.964,10.71L3.964,10.71z"/>
		<path fill-rule="evenodd" clip-rule="evenodd" fill="#EA4335" d="M9,3.58c1.321,0,2.508,0.454,3.44,1.346l2.581-2.581
			C13.463,0.892,11.426,0,9,0C5.482,0,2.438,2.017,0.957,4.958L3.964,7.29C4.672,5.163,6.656,3.58,9,3.58L9,3.58z"/>
	</g>
</g>
</svg>
