<?xml version="1.0" encoding="utf-8"?>
<!-- Generator: Adobe Illustrator 23.0.4, SVG Export Plug-In . SVG Version: 6.00 Build 0)  -->
<svg version="1.1" id="Group_2" xmlns="http://www.w3.org/2000/svg" xmlns:xlink="http://www.w3.org/1999/xlink" x="0px" y="0px"
	 viewBox="0 0 153 23.6" style="enable-background:new 0 0 153 23.6;" xml:space="preserve">
<style type="text/css">
	.st0{fill:#18C746;}
</style>
<path id="חשבונית-ירוקה" class="st0" d="M117.5,7v13.3h4.5v-10h1.1c1.8,0,2.1,0.8,2.1,2.8v7.2h4.5v-8
	c0-3.4-1-5.3-4.6-5.3H117.5z M111.4,7h4.1v6.6c0,4.6-2.3,6.7-6.5,6.7h-8.9L98.9,7h4.3l0.9,10.3h3.7c2.2,0,3.6-0.5,3.6-3.4V7z
	 M109.5,7v7.9h-3.9V7H109.5z M98.2,16.9h-1.6V7h-9.5v3.5h5v6.4H87v3.5h11.1L98.2,16.9z M80.8,7v13.3h4.6V7H80.8z M71.5,16.9v3.5h3.9
	c2.3,0,3.5-1,3.5-3.8V7.1h-6.3v3.5h1.8v5c0,1.1-0.2,1.4-1.1,1.4L71.5,16.9z M65.6,7v7.9h4.6V7H65.6z M51.3,7v3.5h1.4v6.4h-2.2v3.5
	h5.9V10.3h1.2c1.7,0,1.9,0.9,1.9,2.5v7.7h4.4v-7.7c0-3.4-1-5.7-4.6-5.7h-8V7z M41.8,7v6.9h2.4V7H41.8z M31.1,7v1.9h4
	c1.9,0,2.3,1.9,2.3,3.9v7.6h2.3v-7.5c0-3.4-0.8-5.9-4.5-5.9H31.1z M27,7v13.3h2.4V7H27z M13.5,7h11.1v6.7c0,5.1-2.2,6.6-6,6.6h-0.3
	v-1.7h0.2c2.6,0,3.8-0.6,3.8-5.2V8.9h-8.8L13.5,7L13.5,7z M14,23.6V11.9h2.1v11.7H14z M1.6,20.3V13h2.3v7.3H1.6z M1.5,7h10.2v13.3
	H9.4V8.8h-8V7H1.5z"/>
<path id="Shape" class="st0" d="M149.7,0c-2.9,1.5-8.9,1.8-12.9,6.8c-2.3,2.7-3.3,6.7-0.9,10.3c0.3,0.4,0.6,0.9,0.8,1.4
	c-0.8,1.5-0.8,1.6-1.4,2.9c-0.2,0.7,1.9,2.1,2.1,1.5c1.4-5,3.4-9.8,6-14.3c1.4-1.9,2.9-3.7,4.5-5.4c-3.6,5.2-6.3,11-8,17.1
	c0.9,0,1.8,0,2.6-0.2c3.3-0.6,6.2-2.8,7.6-5.9C152.1,9.9,151.9,3.3,149.7,0"/>
</svg>
