<?xml version="1.0" encoding="utf-8"?>
<!-- Generator: Adobe Illustrator 23.0.4, SVG Export Plug-In . SVG Version: 6.00 Build 0)  -->
<svg version="1.1" id="Group_2" xmlns="http://www.w3.org/2000/svg" xmlns:xlink="http://www.w3.org/1999/xlink" x="0px" y="0px"
	 viewBox="0 0 17 23" style="enable-background:new 0 0 17 23;" xml:space="preserve">
<style type="text/css">
	.st0{fill:#23445A;}
</style>
<path id="Shape" class="st0" d="M15.2,0C12.3,1.5,6.3,1.8,2.3,6.8C0,9.5-1,13.5,1.4,17.1C1.7,17.5,2,18,2.2,18.5
	c-0.8,1.5-0.8,1.6-1.4,2.9c-0.2,0.7,1.9,2.1,2.1,1.5c1.4-5,3.4-9.8,6-14.3c1.4-1.9,2.9-3.7,4.5-5.4c-3.6,5.2-6.3,11-8,17.1
	c0.9,0,1.8,0,2.6-0.2c3.3-0.6,6.2-2.8,7.6-5.9C17.6,9.9,17.4,3.3,15.2,0"/>
</svg>
